<svg width="394" height="74" viewBox="0 0 394 74" fill="none" xmlns="http://www.w3.org/2000/svg">
<path d="M140.752 27.9609L136.304 38.8909H145.327L140.752 27.9609ZM151.046 52.9982L147.996 45.3726H133.762L130.711 52.9982H123.086L137.574 19.0645H144.437L158.926 52.9982H151.046Z" fill="white"/>
<path d="M190.719 36.2217C190.719 30.2483 186.652 26.0543 180.551 26.0543H174.832V46.3891H180.551C186.525 46.3891 190.719 42.195 190.719 36.2217ZM180.551 52.9979H167.461V19.3184H180.551C191.1 19.3184 198.472 26.5626 198.472 36.0946V36.2217C198.472 45.6265 191.1 52.9979 180.551 52.9979Z" fill="white"/>
<path d="M232.279 36.2217C232.279 30.2483 228.212 26.0543 222.112 26.0543H216.393V46.3891H222.112C228.212 46.3891 232.279 42.195 232.279 36.2217ZM222.112 52.9979H209.021V19.3184H222.112C232.661 19.3184 240.032 26.5626 240.032 36.0946V36.2217C240.032 45.6265 232.661 52.9979 222.112 52.9979Z" fill="white"/>
<path d="M276.487 52.9979H250.814V19.3184H276.36V25.9272H258.186V32.7902H274.072V39.399H258.186V46.3891H276.487V52.9979Z" fill="white"/>
<path d="M308.148 31.138C308.148 27.8336 305.86 26.0543 302.175 26.0543H296.455V36.3488H302.302C305.987 36.3488 308.148 34.0611 308.148 31.138ZM302.047 42.9576H296.455V53.125H289.084V19.3184H302.81C310.817 19.3184 315.773 24.1479 315.773 31.0109V31.138C315.646 38.8906 309.673 42.9576 302.047 42.9576Z" fill="white"/>
<path d="M337.621 27.9609L333.173 38.8909H342.196L337.621 27.9609ZM347.788 52.9982L344.738 45.3726H330.504L327.454 52.9982H319.828L334.317 19.0645H341.18L355.541 52.9982H347.788Z" fill="white"/>
<path d="M385.157 30.8838C385.157 27.7065 382.997 26.0543 379.311 26.0543H372.067V35.7133H379.565C383.124 35.7133 385.157 33.8069 385.157 30.8838ZM385.03 52.9979L377.786 42.195H372.067V52.9979H364.695V19.3184H380.073C388.08 19.3184 392.783 23.5124 392.783 30.5025V30.6296C392.783 36.0946 389.86 39.5261 385.538 41.0512L393.799 53.125H385.03V52.9979Z" fill="white"/>
<path d="M80.2591 0L33.8704 73.3324H0.699219L47.2151 0H80.2591Z" fill="white"/>
<path d="M55.6074 38.8926L77.3402 73.3346H110.384L88.7786 38.8926H55.6074Z" fill="white"/>
</svg>
