<svg width="136" height="26" viewBox="0 0 136 26" fill="none" xmlns="http://www.w3.org/2000/svg">
<path d="M48.3821 9.65931L46.8454 13.4352H49.9627L48.3821 9.65931ZM51.9385 18.3087L50.8847 15.6743H45.9673L44.9136 18.3087H42.2793L47.2845 6.58594H49.6554L54.6606 18.3087H51.9385Z" fill="white"/>
<path d="M65.644 12.5132C65.644 10.4497 64.2391 9.00081 62.1316 9.00081H60.1559V16.0257H62.1316C64.1952 16.0257 65.644 14.5768 65.644 12.5132ZM62.1316 18.3087H57.6094V6.67383H62.1316C65.7758 6.67383 68.3223 9.17643 68.3223 12.4693V12.5132C68.3223 15.7622 65.7758 18.3087 62.1316 18.3087Z" fill="white"/>
<path d="M80.0015 12.5132C80.0015 10.4497 78.5965 9.00081 76.489 9.00081H74.5133V16.0257H76.489C78.5965 16.0257 80.0015 14.5768 80.0015 12.5132ZM76.489 18.3087H71.9668V6.67383H76.489C80.1332 6.67383 82.6797 9.17643 82.6797 12.4693V12.5132C82.6797 15.7622 80.1332 18.3087 76.489 18.3087Z" fill="white"/>
<path d="M95.2732 18.3087H86.4043V6.67383H95.2293V8.9569H88.9508V11.3278H94.439V13.6109H88.9508V16.0257H95.2732V18.3087Z" fill="white"/>
<path d="M106.211 10.757C106.211 9.61548 105.421 9.00081 104.147 9.00081H102.172V12.5571H104.191C105.464 12.5571 106.211 11.7668 106.211 10.757ZM104.103 14.8402H102.172V18.3526H99.625V6.67383H104.367C107.133 6.67383 108.845 8.34223 108.845 10.7131V10.757C108.801 13.4352 106.738 14.8402 104.103 14.8402Z" fill="white"/>
<path d="M116.393 9.65931L114.856 13.4352H117.973L116.393 9.65931ZM119.905 18.3087L118.852 15.6743H113.934L112.88 18.3087H110.246L115.251 6.58594H117.622L122.583 18.3087H119.905Z" fill="white"/>
<path d="M132.815 10.6692C132.815 9.57158 132.068 9.00081 130.795 9.00081H128.293V12.3376H130.883C132.112 12.3376 132.815 11.679 132.815 10.6692ZM132.771 18.3087L130.268 14.5768H128.293V18.3087H125.746V6.67383H131.059C133.825 6.67383 135.449 8.1227 135.449 10.5375V10.5814C135.449 12.4693 134.439 13.6548 132.947 14.1816L135.8 18.3526H132.771V18.3087Z" fill="white"/>
<path d="M27.4847 0L11.4593 25.3334H0L16.0693 0H27.4847Z" fill="white"/>
<path d="M18.9688 13.4355L26.4766 25.3339H37.8919L30.428 13.4355H18.9688Z" fill="white"/>
</svg>
