<svg width="111" height="47" viewBox="0 0 111 47" fill="none" xmlns="http://www.w3.org/2000/svg">
<g clip-path="url(#clip0_6889_41897)">
<path d="M18.5558 40.5579C18.5558 40.7568 18.3939 40.9085 18.1971 40.9085H16.4301V46.4534C16.4301 46.6522 16.2702 46.8121 16.0714 46.8121C15.8828 46.8121 15.7229 46.6522 15.7229 46.4534V40.9085H13.9661C13.7673 40.9085 13.6074 40.7568 13.6074 40.5579C13.6074 40.3591 13.7673 40.1992 13.9661 40.1992H18.1971C18.3959 40.1992 18.5558 40.3591 18.5558 40.5579Z" fill="white"/>
<path d="M28.627 46.4534V40.5579C28.627 40.3591 28.7889 40.1992 28.9857 40.1992H31.6403C32.8394 40.1992 33.8131 41.1729 33.8131 42.3721C33.8131 43.3827 33.0772 44.2334 32.1425 44.4117L33.7209 46.2176C33.8521 46.3673 33.8336 46.5948 33.6922 46.728C33.6266 46.7834 33.5405 46.8121 33.4564 46.8121C33.3519 46.8121 33.2576 46.7731 33.192 46.6891L31.3123 44.5347H29.3383V46.4534C29.3383 46.6522 29.1784 46.8121 28.9898 46.8121C28.7909 46.8121 28.6311 46.6522 28.6311 46.4534H28.627ZM31.6403 43.8275C32.4438 43.8275 33.0936 43.1756 33.0936 42.3721C33.0936 41.5685 32.4418 40.9085 31.6403 40.9085H29.3342V43.8275H31.6403Z" fill="white"/>
<path d="M43.7735 46.3132L46.4281 40.3993C46.5613 40.1246 46.9488 40.1144 47.0799 40.3993L49.753 46.3132C49.9518 46.7293 49.2897 47.0389 49.1011 46.6063L48.4308 45.0956H45.0977L44.4274 46.6063C44.2286 47.0327 43.5747 46.7375 43.7735 46.3132ZM48.1008 44.3781L46.7499 41.4222L45.4196 44.3781H48.1008Z" fill="white"/>
<path d="M65.2398 43.5057C65.2398 45.3198 63.7659 46.8121 61.9333 46.8121H60.1848C60.0065 46.8018 59.8445 46.6604 59.8363 46.4821C59.8363 46.4821 59.8281 46.4616 59.8281 46.4431V40.5395C59.8281 40.3591 59.988 40.1992 60.1971 40.1992H61.9354C63.768 40.1992 65.2418 41.6731 65.2418 43.5036L65.2398 43.5057ZM64.5305 43.5057C64.5305 42.0605 63.3703 40.9085 61.9333 40.9085H60.5353V46.0926L61.9333 46.1028C63.3703 46.1028 64.5305 44.9324 64.5305 43.5036V43.5057Z" fill="white"/>
<path d="M79.9254 46.4534C79.9254 46.6522 79.7552 46.8121 79.5666 46.8121H75.8646C75.6657 46.8121 75.5059 46.6522 75.5059 46.4534V40.5579C75.5059 40.3591 75.6657 40.1992 75.8646 40.1992H79.5666C79.7552 40.1992 79.9254 40.3591 79.9254 40.5579C79.9254 40.7568 79.7552 40.9085 79.5666 40.9085H76.2131V43.1469H79.0747C79.2633 43.1469 79.4232 43.3068 79.4232 43.5057C79.4232 43.7065 79.2633 43.8664 79.0747 43.8664H76.2131V46.1049H79.5666C79.7552 46.1049 79.9254 46.2545 79.9254 46.4534Z" fill="white"/>
<path d="M90.2051 46.4534V40.5579C90.2051 40.3591 90.367 40.1992 90.5638 40.1992H93.2184C94.4176 40.1992 95.3912 41.1729 95.3912 42.3721C95.3912 43.3827 94.6553 44.2334 93.7206 44.4117L95.299 46.2176C95.4302 46.3673 95.4117 46.5948 95.2703 46.728C95.2047 46.7834 95.1186 46.8121 95.0346 46.8121C94.93 46.8121 94.8357 46.7731 94.7701 46.6891L92.8904 44.5347H90.9164V46.4534C90.9164 46.6522 90.7565 46.8121 90.5679 46.8121C90.3691 46.8121 90.2092 46.6522 90.2092 46.4534H90.2051ZM93.2184 43.8275C94.0219 43.8275 94.6717 43.1756 94.6717 42.3721C94.6717 41.5685 94.0199 40.9085 93.2184 40.9085H90.9123V43.8275H93.2184Z" fill="white"/>
<path d="M105.623 45.8122C105.472 45.6974 105.445 45.4719 105.568 45.3304C105.691 45.1706 105.908 45.1419 106.05 45.2648C106.361 45.6441 106.956 46.1545 107.948 46.1545C109.071 46.1545 109.571 45.5785 109.6 45.0025C109.647 44.3424 109.081 43.916 107.919 43.7459C106.927 43.5963 106.275 43.2744 105.916 42.7825C105.681 42.4627 105.594 42.0732 105.67 41.6386C105.832 40.7695 106.691 40.1094 107.985 40.1545C108.901 40.1935 109.459 40.6547 109.778 41.0442C109.93 41.1672 109.957 41.3926 109.825 41.5443C109.702 41.6858 109.485 41.7042 109.344 41.5833C109.059 41.2533 108.645 40.8925 107.946 40.8638C106.972 40.8187 106.443 41.3188 106.367 41.7616C106.236 42.5283 106.99 42.887 108.019 43.0469C110.061 43.3421 110.344 44.408 110.305 45.0517C110.25 45.9208 109.559 46.8658 107.944 46.8658C106.734 46.8658 105.998 46.2406 105.619 45.8163L105.623 45.8122Z" fill="white"/>
<path d="M95.4668 11.9961L102.432 22.7354L109.369 11.9961H95.4668Z" fill="#DDCDAC"/>
<path d="M45.9375 31.0182V13.1003C45.9375 12.4976 46.4254 12.0098 47.028 12.0098H55.0984C58.7451 12.0098 61.703 14.9677 61.703 18.6144C61.703 21.6872 59.4625 24.2721 56.6214 24.8173L61.4161 30.3007C61.8178 30.762 61.7604 31.4507 61.33 31.8525C61.1291 32.0247 60.8708 32.1108 60.6125 32.1108C60.2968 32.1108 60.0098 31.996 59.8069 31.7377L54.0939 25.1904H48.0919V31.0202C48.0919 31.6229 47.604 32.1108 47.028 32.1108C46.4254 32.1108 45.9375 31.6229 45.9375 31.0202V31.0182ZM55.0984 23.034C57.5377 23.034 59.5199 21.0538 59.5199 18.6124C59.5199 16.171 57.5398 14.1621 55.0984 14.1621H48.0919V23.034H55.0984Z" fill="white"/>
<path d="M85.2354 13.1004C85.2354 13.7051 84.7475 14.1643 84.1449 14.1643H78.7763V31.0183C78.7763 31.621 78.2884 32.1088 77.6857 32.1088C77.1118 32.1088 76.6218 31.621 76.6218 31.0183V14.1622H71.2819C70.6793 14.1622 70.1914 13.7031 70.1914 13.0983C70.1914 12.4936 70.6793 12.0078 71.2819 12.0078H84.1449C84.7475 12.0078 85.2354 12.4977 85.2354 13.1004Z" fill="white"/>
<path d="M110.235 13.6451L103.516 24.3556L103.487 31.0464C103.487 31.6204 102.999 32.1103 102.396 32.1103C101.794 32.1103 101.335 31.6224 101.335 31.0198L101.363 24.3577L94.5864 13.6471C94.2707 13.1306 94.4142 12.4705 94.9307 12.1528C95.4186 11.8371 96.1074 11.9806 96.3944 12.4972L102.425 22.0024L108.398 12.4972C108.714 12.0093 109.374 11.8371 109.891 12.1528C110.407 12.4685 110.524 13.1285 110.235 13.6451Z" fill="white"/>
<path d="M4.98528 37.3794V37.8918H32.9065C35.6595 37.8918 37.8918 35.6595 37.8918 32.9065V4.98528C37.8918 2.23231 35.6595 0 32.9065 0H4.98528C2.23231 0 0 2.23231 0 4.98528V32.9065C0 35.6595 2.23231 37.8918 4.98528 37.8918V36.8669C2.79807 36.8628 1.02903 35.0938 1.02493 32.9065V4.98528C1.02903 2.79807 2.79807 1.02903 4.98528 1.02493H32.9065C35.0938 1.02903 36.8628 2.79807 36.8669 4.98528V32.9065C36.8628 35.0938 35.0938 36.8628 32.9065 36.8669H4.98528V37.3794Z" fill="white"/>
<path d="M31.5167 30.5879L23.3972 12.6311C22.9954 11.7701 21.8208 11.7988 21.4191 12.6311L13.359 30.5879C12.7563 31.8773 14.7344 32.7669 15.3371 31.4776L17.3747 26.8879H17.3788L18.3525 24.7069H18.3504L22.3927 15.7284L26.1768 24.0079L26.183 24.0243L26.4945 24.7069L27.4867 26.8879H27.4969L29.5345 31.4776C30.1085 32.7956 32.1173 31.8486 31.5147 30.5879H31.5167Z" fill="white"/>
<path d="M29.4844 26.0973L23.5746 13.0273L17.7305 26.0973H29.4844Z" fill="#769C9C"/>
<path d="M85.4676 12.5783C85.0638 12.1908 84.576 11.9961 84.0061 11.9961H71.4609C70.891 11.9961 70.4032 12.1908 69.9993 12.5783C69.5955 12.9657 69.3926 13.4331 69.3926 13.9804C69.3926 14.5318 69.5935 15.0012 69.9952 15.3866C70.1182 15.5055 70.2187 15.569 70.3786 15.6859C70.5385 15.8027 70.8295 15.8826 70.8295 15.8826C71.0284 15.9421 71.2375 15.9708 71.4588 15.9708H72.8712L82.1038 15.9585L82.5937 15.9708H84.0061C84.2275 15.9708 84.4366 15.94 84.6354 15.8826C84.6354 15.8826 84.9265 15.8006 85.0864 15.6859C85.2463 15.5711 85.3467 15.5055 85.4697 15.3866C85.8715 15.0012 86.0724 14.5318 86.0724 13.9804C86.0724 13.4331 85.8715 12.9657 85.4676 12.5783Z" fill="#B0745F"/>
<path d="M54.094 25.1748L56.6195 24.8017C59.4626 24.2544 61.7011 21.6716 61.7011 18.5988C61.7011 14.9542 58.7431 11.9941 55.0964 11.9941H47.0261C46.4234 11.9941 45.9355 12.482 45.9355 13.0847V25.1399L50.0517 25.1748H54.094Z" fill="#769B7D"/>
<path d="M17.3902 23.9921C17.7981 24.6911 16.806 25.4086 17.1565 26.1383H27.8445C29.2815 26.1445 29.2302 23.9244 27.8322 23.9634L24.9173 23.9716L17.3881 23.9921H17.3902Z" fill="white"/>
<path d="M28.8473 24.6888L29.903 27.0195L27.3242 26.136L28.1647 24.5371L28.8473 24.6888Z" fill="white"/>
<path d="M28.5194 23.9629L30.1532 27.5727L27.1808 25.2851L22.1074 25.365L24.1716 23.9731L28.5194 23.9629Z" fill="white"/>
</g>
<defs>
<clipPath id="clip0_6889_41897">
<rect width="110.39" height="46.86" fill="white"/>
</clipPath>
</defs>
</svg>
