<svg width="28" height="28" viewBox="0 0 28 28" fill="none" xmlns="http://www.w3.org/2000/svg">
<path d="M14.4328 15.2589C14.4328 15.1429 14.4794 15.0316 14.5624 14.9495C14.6454 14.8675 14.758 14.8214 14.8754 14.8214H19.717C19.8344 14.8214 19.947 14.8675 20.03 14.9495C20.113 15.0316 20.1596 15.1429 20.1596 15.2589C20.1596 15.3749 20.113 15.4862 20.03 15.5683C19.947 15.6503 19.8344 15.6964 19.717 15.6964H14.8754C14.758 15.6964 14.6454 15.6503 14.5624 15.5683C14.4794 15.4862 14.4328 15.3749 14.4328 15.2589ZM9.68308 15.6964H12.9108C13.0282 15.6964 13.1408 15.6503 13.2238 15.5683C13.3068 15.4862 13.3534 15.3749 13.3534 15.2589C13.3534 15.1429 13.3068 15.0316 13.2238 14.9495C13.1408 14.8675 13.0282 14.8214 12.9108 14.8214H9.68308C9.56567 14.8214 9.45308 14.8675 9.37006 14.9495C9.28705 15.0316 9.24041 15.1429 9.24041 15.2589C9.24041 15.3749 9.28705 15.4862 9.37006 15.5683C9.45308 15.6503 9.56567 15.6964 9.68308 15.6964ZM28 21.5356V26.8665C28 27.4915 27.4856 28 26.8532 28H21.4593C20.8269 28 20.3125 27.4915 20.3125 26.8665V24.6386H3.28699C1.47453 24.6386 0 23.1813 0 21.39V18.07C0 16.2787 1.47453 14.8214 3.28699 14.8214H6.2681C6.486 13.1602 7.92573 11.8725 9.66498 11.8725H19.7352C21.4744 11.8725 22.9141 13.1602 23.132 14.8214H24.5001C25.8244 14.8214 26.9018 13.7566 26.9018 12.4478V8.16813C26.9018 6.85929 25.8244 5.79458 24.5001 5.79458H10.8406V6.02202C10.8406 6.12607 10.8031 6.22672 10.7348 6.30589C10.6665 6.38506 10.5718 6.43757 10.4679 6.454L9.29408 6.63972C9.23397 6.8169 9.16144 6.98973 9.07701 7.15695L9.77438 8.10884C9.83613 8.19312 9.86546 8.29639 9.85711 8.40012C9.84877 8.50384 9.80329 8.60123 9.72884 8.6748L8.77732 9.61521C8.70287 9.68877 8.60434 9.7337 8.4994 9.74193C8.39446 9.75017 8.28999 9.72118 8.20473 9.66016L7.24153 8.97094C7.07236 9.05435 6.8975 9.126 6.71824 9.18537L6.53033 10.3457C6.51369 10.4484 6.46055 10.5419 6.38045 10.6094C6.30034 10.6769 6.19852 10.714 6.09325 10.714H4.74742C4.64215 10.714 4.54032 10.6769 4.46022 10.6094C4.38011 10.5419 4.32697 10.4484 4.31034 10.3457L4.12242 9.18548C3.94312 9.12612 3.76824 9.05443 3.59907 8.97094L2.63594 9.66016C2.55068 9.7212 2.4462 9.75021 2.34126 9.74197C2.23631 9.73373 2.13778 9.68879 2.06334 9.61521L1.11182 8.6748C1.03737 8.60123 0.991894 8.50384 0.983548 8.40012C0.975202 8.29639 1.00453 8.19312 1.06628 8.10884L1.76371 7.15695C1.67928 6.98974 1.60676 6.81691 1.54669 6.63972L0.372728 6.454C0.268785 6.43755 0.174176 6.38503 0.105877 6.30586C0.0375779 6.22669 5.99724e-05 6.12606 5.53298e-05 6.02202V4.69202C5.99724e-05 4.58799 0.0375779 4.48735 0.105877 4.40819C0.174176 4.32902 0.268785 4.2765 0.372728 4.26005L1.54663 4.07433C1.60672 3.89712 1.67923 3.72427 1.76365 3.55704L1.06623 2.60515C1.00448 2.52087 0.975146 2.4176 0.983493 2.31388C0.991839 2.21015 1.03732 2.11276 1.11177 2.03919L2.06329 1.09878C2.13773 1.0252 2.23628 0.980256 2.34123 0.972017C2.44618 0.963778 2.55067 0.992784 2.63594 1.05383L3.59902 1.74305C3.76823 1.6596 3.94312 1.58792 4.12242 1.52852L4.31034 0.368375C4.32696 0.265631 4.38009 0.172108 4.4602 0.104593C4.54031 0.037079 4.64214 -4.41995e-06 4.74742 8.54808e-10H6.09308C6.19835 -6.50023e-06 6.30018 0.0370692 6.38028 0.104573C6.46039 0.172076 6.51353 0.265586 6.53016 0.36832L6.71807 1.52846C6.89736 1.58786 7.07223 1.65955 7.24142 1.743L8.20462 1.05377C8.28987 0.992734 8.39435 0.963729 8.49929 0.971968C8.60424 0.980207 8.70278 1.02515 8.77721 1.09873L9.72873 2.03913C9.80318 2.11271 9.84866 2.2101 9.857 2.31382C9.86535 2.41755 9.83602 2.52082 9.77427 2.60509L9.07695 3.55709C9.1614 3.7243 9.23392 3.89713 9.29397 4.07433L10.4679 4.26005C10.5719 4.2765 10.6665 4.32902 10.7348 4.40819C10.8031 4.48735 10.8406 4.58799 10.8406 4.69202V4.91952H24.5C26.3125 4.91952 27.7871 6.37678 27.7871 8.16807V12.4478C27.7871 14.239 26.3125 15.6964 24.5 15.6964H23.132C22.9141 17.3576 21.4743 18.6453 19.7351 18.6453H9.66493C7.92568 18.6453 6.486 17.3576 6.26804 15.6964H3.28699C1.96269 15.6964 0.88534 16.7612 0.88534 18.07V21.3899C0.88534 22.6988 1.96274 23.7635 3.28699 23.7635H20.3125V21.5356C20.3125 20.9106 20.8269 20.4022 21.4593 20.4022H26.8532C27.4856 20.4022 28 20.9106 28 21.5356ZM9.95527 5.06505L8.87869 4.89475C8.79348 4.88126 8.71411 4.84345 8.65035 4.78597C8.58659 4.72849 8.54121 4.65385 8.5198 4.57122C8.44479 4.28163 8.32836 4.0041 8.17402 3.74702C8.12998 3.67363 8.10862 3.58912 8.11256 3.50389C8.1165 3.41865 8.14558 3.33642 8.19621 3.2673L8.83586 2.39416L8.41809 1.98133L7.53463 2.61346C7.4647 2.6635 7.3815 2.69223 7.29526 2.69613C7.20902 2.70002 7.1235 2.67891 7.04925 2.63539C6.78918 2.48283 6.50841 2.36775 6.21542 2.29365C6.1318 2.27251 6.05626 2.22767 5.99809 2.16465C5.93992 2.10163 5.90165 2.02318 5.88801 1.93895L5.71565 0.875H5.1249L4.95259 1.93889C4.93893 2.02312 4.90066 2.10158 4.84248 2.16459C4.7843 2.22761 4.70875 2.27245 4.62513 2.29359C4.33213 2.36771 4.05134 2.48278 3.79125 2.63534C3.71697 2.67883 3.63146 2.69992 3.54521 2.69603C3.45897 2.69213 3.37576 2.66341 3.30581 2.61341L2.42246 1.98127L2.00469 2.39411L2.64435 3.26725C2.69497 3.33636 2.72405 3.4186 2.72799 3.50383C2.73193 3.58907 2.71057 3.67358 2.66653 3.74697C2.51219 4.00401 2.39576 4.2815 2.32075 4.57105C2.29937 4.65371 2.25401 4.72838 2.19024 4.78588C2.12648 4.84339 2.04709 4.88121 1.96186 4.8947L0.88534 5.06505V5.64895L1.96191 5.81924C2.04714 5.83273 2.12652 5.87054 2.19029 5.92803C2.25405 5.98552 2.29942 6.06018 2.32081 6.14283C2.39582 6.43238 2.51225 6.70987 2.66659 6.96691C2.71063 7.0403 2.73199 7.12482 2.72804 7.21005C2.7241 7.29529 2.69503 7.37752 2.6444 7.44663L2.00474 8.31977L2.42251 8.73261L3.30592 8.10048C3.37585 8.05046 3.45906 8.02174 3.5453 8.01784C3.63153 8.01395 3.71704 8.03505 3.7913 8.07855C4.05134 8.23114 4.3321 8.34621 4.62507 8.42029C4.70871 8.44141 4.78428 8.48624 4.84247 8.54926C4.90067 8.61228 4.93894 8.69075 4.95259 8.77499L5.1249 9.83894H5.71565L5.88801 8.77494C5.90166 8.69072 5.93992 8.61229 5.99808 8.54928C6.05624 8.48627 6.13176 8.44143 6.21537 8.42029C6.50837 8.34615 6.78918 8.23107 7.0493 8.07855C7.12356 8.03503 7.20907 8.01391 7.29531 8.01781C7.38155 8.02171 7.46476 8.05044 7.53469 8.10048L8.41815 8.73261L8.83592 8.31977L8.19626 7.44663C8.14563 7.37751 8.11656 7.29526 8.11263 7.21002C8.10869 7.12477 8.13007 7.04025 8.17413 6.96686C8.32851 6.70986 8.44494 6.43238 8.51991 6.14283C8.54129 6.06017 8.58666 5.98549 8.65044 5.92798C8.71422 5.87048 8.79361 5.83266 8.87886 5.81919L9.95532 5.64895L9.95527 5.06505ZM7.12384 15.2589C7.12384 16.6437 8.26377 17.7703 9.66493 17.7703H19.7351C21.1363 17.7703 22.2762 16.6437 22.2762 15.2589C22.2762 13.8741 21.1362 12.7475 19.7351 12.7475H9.66493C8.26377 12.7475 7.12384 13.8741 7.12384 15.2589ZM27.1147 21.5356C27.1147 21.3956 26.9949 21.2772 26.8532 21.2772H21.4593C21.3175 21.2772 21.1978 21.3956 21.1978 21.5356V26.8665C21.1978 27.0067 21.3176 27.125 21.4593 27.125H26.8532C26.995 27.125 27.1147 27.0067 27.1147 26.8665V21.5356ZM25.8695 22.8302C25.8243 22.7941 25.7723 22.7671 25.7166 22.7508C25.6608 22.7345 25.6024 22.7292 25.5446 22.7353C25.4868 22.7413 25.4307 22.7585 25.3797 22.786C25.3286 22.8134 25.2835 22.8505 25.2469 22.8952L23.869 24.5787L23.0344 23.7538C22.9934 23.7128 22.9446 23.6802 22.8908 23.6579C22.8369 23.6356 22.7792 23.624 22.7208 23.6238C22.6625 23.6237 22.6047 23.6349 22.5507 23.6569C22.4968 23.6789 22.4477 23.7112 22.4065 23.752C22.3652 23.7928 22.3325 23.8412 22.3103 23.8945C22.288 23.9479 22.2767 24.005 22.2768 24.0627C22.277 24.1204 22.2887 24.1774 22.3113 24.2306C22.3339 24.2838 22.3669 24.332 22.4084 24.3726L23.5908 25.5411C23.6347 25.5845 23.6873 25.6183 23.7453 25.6402C23.8032 25.6622 23.8652 25.6719 23.9271 25.6686C23.9891 25.6654 24.0497 25.6493 24.1049 25.6215C24.1602 25.5936 24.209 25.5546 24.248 25.5069L25.9353 23.4455C26.0091 23.3552 26.0436 23.2398 26.0313 23.1244C26.0189 23.009 25.9607 22.9032 25.8695 22.8302ZM7.85125 5.35697C7.85125 6.68177 6.76074 7.75955 5.42028 7.75955C4.07981 7.75955 2.9893 6.68177 2.9893 5.35697C2.9893 4.03216 4.07981 2.95438 5.42028 2.95438C6.76074 2.95438 7.85125 4.03216 7.85125 5.35697ZM6.96591 5.35697C6.96591 4.51467 6.27258 3.82938 5.42028 3.82938C4.56797 3.82938 3.87464 4.51462 3.87464 5.35697C3.87464 6.19932 4.56797 6.88455 5.42028 6.88455C6.27258 6.88455 6.96591 6.19927 6.96591 5.35697Z" fill="white"/>
</svg>
