<svg width="35" height="35" viewBox="0 0 35 35" fill="none" xmlns="http://www.w3.org/2000/svg">
<g clip-path="url(#clip0_49_27)">
<path d="M31.188 0H3.812C1.70669 0 0 1.70669 0 3.812V31.188C0 33.2933 1.70669 35 3.812 35H31.188C33.2933 35 35 33.2933 35 31.188V3.812C35 1.70669 33.2933 0 31.188 0Z" fill="#769C9C"/>
<path d="M8.70508 29.4712V29.7946H26.2947C28.0287 29.7946 29.4353 28.388 29.4353 26.6539V9.06641C29.4353 7.33237 28.0287 5.92578 26.2947 5.92578H8.70508C6.97104 5.92578 5.56445 7.33237 5.56445 9.06641V26.6539C5.56445 28.388 6.97104 29.7946 8.70508 29.7946V29.1479C7.32733 29.1458 6.21317 28.0317 6.20905 26.6519V9.06641C6.21111 7.68865 7.32733 6.5745 8.70508 6.57038H26.2947C27.6724 6.57244 28.7866 7.68659 28.7886 9.06641V26.6539C28.7866 28.0317 27.6704 29.1458 26.2947 29.15H8.70508V29.4712Z" fill="white"/>
<path d="M25.4172 25.193L20.3036 13.8806C20.0503 13.3369 19.3109 13.3575 19.0576 13.8806L13.9791 25.193C13.6001 26.0044 14.8461 26.5666 15.225 25.7532L16.5081 22.8617H16.5101L17.1238 21.4881L19.6713 15.8329L22.0562 21.0494L22.0603 21.0597L22.2559 21.4901L22.882 22.8638H22.8882L24.1712 25.7552C24.5337 26.5852 25.7981 25.99 25.4192 25.1951L25.4172 25.193Z" fill="white"/>
<path d="M24.139 22.3625L20.4176 14.1289L16.7354 22.3625H24.139Z" fill="#769C9C"/>
<path d="M16.5204 21.0364C16.7778 21.4772 16.1518 21.9282 16.3721 22.3874H23.1065C24.0126 22.3915 23.9797 20.9932 23.1003 21.0179L21.2653 21.022L16.5225 21.0344L16.5204 21.0364Z" fill="white"/>
<path d="M23.737 21.4756L24.4022 22.946L22.7773 22.3879L23.3087 21.3809L23.737 21.4756Z" fill="white"/>
<path d="M23.5307 21.0176L24.5584 23.2932L22.6864 21.8516L19.4922 21.9011L20.7917 21.0258L23.5307 21.0176Z" fill="white"/>
</g>
<defs>
<clipPath id="clip0_49_27">
<rect width="35" height="35" fill="white"/>
</clipPath>
</defs>
</svg>
